<svg width="72" height="18" viewBox="0 0 72 18" fill="none" xmlns="http://www.w3.org/2000/svg">
<path d="M8.97 3.775H17.02V0.899999H8.97C4.531 0.899999 0.92 4.511 0.92 8.95C0.92 13.389 4.531 17 8.97 17H17.02V14.125H8.97C6.118 14.125 3.795 11.802 3.795 8.95C3.795 6.098 6.118 3.775 8.97 3.775ZM33.3509 14.125L26.6119 0.899999L19.8729 14.125L18.4009 17H21.6209L23.0929 14.125L26.6119 7.225L30.1309 14.125L31.6029 17H34.8229L33.3509 14.125ZM40.4351 14.125C39.4231 13.987 38.6181 13.182 38.4801 12.17V0.922999H35.6051V11.894C35.6051 12.699 35.7891 13.458 36.1341 14.148C36.6171 15.16 37.4451 15.988 38.4571 16.494C39.1471 16.839 39.9061 17.023 40.7111 17.023H48.8761V14.148L40.4351 14.125ZM54.0455 17V0.899999H51.1705V17H54.0455ZM70.3665 14.125L63.6275 0.899999L56.8885 14.125L55.4165 17H58.6365L60.1085 14.125L63.6275 7.225L67.1465 14.125L68.6185 17H71.8385L70.3665 14.125Z" fill="#1F2C36"/>
</svg>
